<svg
   width="100mm"
   height="100mm"
   viewBox="0 0 100 100"
   version="1.1"
   xmlns="http://www.w3.org/2000/svg">
  <path
     d="M 78.653919,1.3822605 C 66.546834,1.2254134 51.576271,13.468427 40.98942,19.60303 28.205295,27.010856 4.5147381,35.535619 4.5380431,50.310906 4.5613481,65.086191 28.278668,73.536251 41.086094,80.903714 53.893516,88.271176 73.121578,104.52526 85.905697,97.117441 98.689828,89.709618 94.149182,64.945032 94.125914,50.169745 94.102621,35.394459 98.565109,10.615177 85.757693,3.2477121 83.556417,1.9814291 81.166711,1.4148138 78.653919,1.3822605 Z M 57.875588,20.932073 c 0.421196,0.0011 0.811688,0.02345 1.15409,0.05689 0.587974,0.05744 1.082332,0.09512 1.621628,0.355894 0.539295,0.260774 0.906155,0.625551 1.432561,1.151097 0.799162,0.79785 1.133948,1.81804 1.44026,2.877526 0.306321,1.059488 0.546747,2.191361 0.853805,3.214172 0.732031,2.438385 0.641405,4.71867 1.699054,6.90016 0.991782,2.045664 3.976388,4.498721 5.592076,7.210713 1.353597,2.272064 2.669772,4.20138 3.104668,6.94037 0.120355,0.03894 0.242342,0.07836 0.374715,0.126188 0.688582,0.248813 1.524785,0.585158 2.227763,1.243066 1.185386,1.109387 1.993023,2.743705 2.444636,4.505998 0.488924,1.907894 0.244095,3.97978 0.08898,5.766602 -0.157647,1.816201 -0.354109,3.981789 -1.085222,5.725112 -0.635695,1.515775 -1.279308,2.585719 -2.644825,3.763839 -0.930727,0.803005 -2.078536,1.112364 -3.160703,1.401334 -1.082175,0.288972 -2.133767,0.534845 -2.656377,0.77296 -0.893594,0.407149 -1.992154,1.108097 -2.600767,1.51084 -0.13232,0.814259 -0.582497,1.480997 -1.059128,2.093019 -0.601659,0.772567 -1.475392,1.592126 -2.769731,2.219634 -1.410737,0.683946 -3.304869,1.00775 -4.803292,1.133132 -1.469244,0.122939 -2.816112,0.07017 -4.212986,-0.265211 -1.356396,-0.325667 -2.889403,-0.833698 -4.075675,-1.79915 -0.921532,-0.749984 -2.004654,-1.692355 -2.302192,-3.38228 -0.274256,-1.554619 -0.104677,-2.386079 -0.190782,-2.643115 -0.175866,-0.525001 -0.150422,-0.379067 -0.816588,-0.968442 -0.896865,-0.793486 -1.324212,-1.80425 -1.661839,-2.645256 -0.381384,-0.949964 -0.527817,-1.869749 -0.554804,-2.685033 -0.03808,-1.152854 0.32279,-1.875382 0.312693,-2.208942 -0.01126,-0.01073 -0.04148,-0.04235 -0.128329,-0.127472 -0.180113,-0.176517 -0.570471,-0.432564 -0.895723,-1.021914 -0.40284,-0.729945 -0.664029,-1.573892 -0.830707,-2.421537 -0.194928,-0.991445 -0.100876,-1.957826 -0.01625,-2.74535 0.101748,-0.947008 0.327556,-1.46273 0.34734,-1.78332 0.04296,-0.69597 0.121333,-0.427385 -0.0094,-0.979567 -0.03954,-0.166994 -0.772919,-1.234478 -0.960317,-2.662791 -0.139343,-1.061556 -0.152789,-1.835046 0.06759,-2.685464 0.239138,-0.922863 0.707765,-1.461328 1.351714,-2.279522 0.727934,-0.924907 1.805511,-2.05921 3.26422,-3.003714 1.48151,-0.95926 3.496582,-1.779293 5.263985,-2.261982 0.452637,-0.123625 0.95645,-0.21893 1.463789,-0.293871 -0.92759,-0.831032 -1.829832,-1.825729 -2.585797,-2.89421 -1.221551,-1.726537 -2.493446,-3.951134 -2.859989,-6.256811 -0.348759,-2.193935 -0.143416,-4.510764 0.772959,-6.361614 0.886451,-1.79042 2.299332,-2.986735 3.866931,-3.754001 1.333754,-0.65284 2.872396,-0.841185 4.135991,-0.83798 z m 0.09453,2.42111 c -1.032746,0.01929 -2.402579,0.195205 -3.174819,0.573196 -1.21935,0.596816 -2.134681,1.376266 -2.771013,2.661507 -0.606436,1.224816 -0.834406,3.159317 -0.554375,4.920926 0.262284,1.649865 1.351803,3.696905 2.44934,5.24816 1.05913,1.496978 2.616665,2.95191 3.747587,3.655191 0.91769,0.570674 3.057185,0.93465 3.057185,0.93465 a 1.2002545,1.2002545 0 0 1 0.479516,0.169392 c 0.07789,0.02361 0.152723,0.04564 0.23655,0.07315 0.549326,0.180303 1.214376,0.41811 1.826953,0.876049 0.823955,0.615962 2.001943,1.499496 2.82919,2.633704 0.755547,1.035874 1.420695,2.296511 1.558749,3.684706 0.13845,1.392086 -0.375517,2.587633 -1.026618,3.432327 -0.03739,0.0485 -0.07626,0.09131 -0.114639,0.136026 0.182151,0.09994 0.363115,0.206756 0.543252,0.329375 1.089013,0.741289 1.792011,1.851067 2.19226,3.139741 0.453952,1.461698 0.566706,3.292385 -0.03252,4.790461 -0.151127,0.377802 -0.336541,0.712224 -0.548813,0.992395 0.09971,0.09272 0.198595,0.195638 0.294724,0.316113 0.724748,0.908322 0.827163,1.935948 0.9539,2.853147 0.135597,0.981457 0.2181,2.242835 -0.108222,3.450292 -0.294293,1.088915 -0.823448,2.105064 -1.618208,2.939125 -0.355973,0.373573 -0.70833,0.549824 -1.085649,0.727189 0.02102,0.02766 0.04252,0.05479 0.06288,0.08299 0.636903,-0.399057 1.430543,-0.86275 2.199531,-1.213122 0.949434,-0.432598 2.033044,-0.63977 3.03323,-0.906846 1.000184,-0.267079 1.881941,-0.616524 2.211507,-0.900858 1.155075,-0.996559 1.409807,-1.467793 1.999767,-2.874532 0.494529,-1.179191 0.752981,-3.225924 0.907275,-5.003484 0.156902,-1.806938 0.300918,-3.700541 -0.02267,-4.963273 -0.360904,-1.408334 -1.077178,-2.712148 -1.75894,-3.350198 -0.162789,-0.152351 -0.526539,-0.358402 -0.916257,-0.536409 -0.09682,1.052363 -0.293697,2.137682 -0.495343,3.13632 -0.357576,1.770909 -0.761409,3.20904 -0.761409,3.20904 a 1.2002545,1.2002545 0 0 1 -1.479187,0.832842 1.2002545,1.2002545 0 0 1 -0.832843,-1.479615 c 0,0 0.381166,-1.361948 0.719488,-3.037507 0.275192,-1.362859 0.490577,-2.960957 0.494059,-4.020923 a 1.2002545,1.2002545 0 0 1 -0.02052,-0.521436 c -0.0037,-0.03878 -0.0045,-0.08622 -0.0094,-0.121911 -0.310133,-2.29085 -1.391449,-3.88289 -2.827904,-6.29403 -1.217308,-2.043283 -4.27937,-4.481125 -5.690464,-7.391654 -1.345244,-2.774698 -1.265912,-5.346038 -1.840213,-7.259049 -0.346111,-1.152885 -0.589678,-2.302569 -0.859793,-3.236842 -0.270116,-0.934273 -0.605239,-1.620675 -0.829422,-1.844492 -0.496939,-0.496119 -0.706505,-0.65436 -0.781087,-0.690401 -0.07454,-0.03604 -0.230436,-0.06959 -0.809744,-0.126188 -0.12062,-0.01178 -0.257878,-0.01995 -0.407654,-0.02396 -0.131054,-0.0034 -0.271666,-0.004 -0.419202,-0.0013 z m -0.0034,19.824433 c -0.240282,0.0095 -2.987991,0.12424 -4.252767,0.469678 -1.528875,0.417551 -3.442295,1.217144 -4.591552,1.96127 -1.172027,0.758882 -2.078868,1.705622 -2.682041,2.472012 -0.687175,0.873105 -0.7886,0.908955 -0.914974,1.396629 -0.145172,0.560121 -0.139546,0.79647 -0.01154,1.771775 0.07984,0.608537 0.642802,1.265233 0.916683,2.421962 0.182705,0.771541 0.100105,1.188381 0.06972,1.679805 -0.05354,0.866802 -0.296349,1.32276 -0.357604,1.893256 -0.07848,0.729977 -0.115234,1.513808 -0.01454,2.02586 0.128965,0.655854 0.355758,1.322964 0.577473,1.72472 -0.01297,-0.0235 0.158483,0.155388 0.475238,0.46583 0.316768,0.310434 0.795708,0.886672 0.843968,1.682798 0.07362,1.21436 -0.318002,2.048134 -0.310554,2.287647 v 0.0018 c 0.01967,0.590528 0.121369,1.216499 0.383272,1.868875 0.305859,0.76187 0.641646,1.404019 1.024908,1.743111 0.613992,0.543211 1.192448,1.079515 1.501857,2.003191 0.39918,1.191654 0.08138,1.864649 0.279753,2.98917 0.174172,0.989227 0.517409,1.176431 1.45181,1.936887 0.669652,0.544999 1.960626,1.050567 3.120495,1.329044 1.119389,0.268733 2.153336,0.314091 3.453287,0.205324 1.270773,-0.106327 3.116537,-0.49393 3.955905,-0.900858 0.955749,-0.463364 1.492475,-0.981481 1.924053,-1.535651 0.459781,-0.590384 0.593245,-0.952643 0.591589,-1.104471 -0.004,-0.375025 -0.05227,-0.46559 -0.22286,-0.646341 -0.184352,-0.195344 -0.331933,-0.294576 -0.89102,-0.397813 -0.08376,-0.01546 -1.081411,0.28321 -2.410415,0.405513 -1.158396,0.106623 -2.930678,0.16666 -3.870354,0.161692 -0.938177,-0.0054 -1.62334,-0.08726 -1.62334,-0.08726 a 1.2002545,1.2002545 0 0 1 -1.049289,-1.333748 1.2002545,1.2002545 0 0 1 1.335458,-1.04929 c 0,0 0.539551,0.06476 1.350006,0.06972 0.808938,0.0044 2.630812,-0.0592 3.63765,-0.151854 0.639351,-0.05884 1.304121,-0.39165 2.184987,-0.434174 0.184474,-0.04992 0.614529,-0.169033 1.177618,-0.362738 0.351344,-0.120862 0.71528,-0.260497 0.99753,-0.392682 0.282251,-0.132184 0.490365,-0.298895 0.43503,-0.240827 0.495109,-0.519587 0.834654,-1.153036 1.039453,-1.910794 0.172752,-0.639213 0.156722,-1.71013 0.04834,-2.494683 -0.117293,-0.848816 -0.328252,-1.526984 -0.454278,-1.684938 0.01467,0.01839 -0.193005,-0.145648 -0.412787,-0.259649 -0.984299,0.61023 -2.254614,1.191101 -3.494781,1.530089 -1.492736,0.408076 -2.996151,0.446604 -4.393927,0.43332 -1.616064,-0.01537 -4.257046,-0.48679 -4.257046,-0.48679 a 1.2002546,1.2002546 0 0 1 -0.982987,-1.382084 1.2002546,1.2002546 0 0 1 1.382513,-0.984699 c 0,0 2.769551,0.442006 3.880192,0.452569 1.32849,0.01266 2.613761,-0.0396 3.739458,-0.34734 1.122271,-0.306765 2.593987,-1.038726 3.28304,-1.53223 a 1.2002546,1.2002546 0 0 1 0.04835,-0.03337 c 0.441875,-0.316205 0.717833,-0.490398 0.815304,-0.578327 0.101021,-0.09114 0.141732,-0.122062 0.296009,-0.507748 0.175395,-0.438576 0.20823,-2.412985 -0.03251,-3.188079 -0.294478,-0.94812 -0.639277,-1.450225 -1.249909,-1.865882 -0.718336,-0.488968 -1.041897,-0.595334 -2.172155,-0.735742 a 1.2002545,1.2002545 0 0 1 -0.06117,-0.0073 c -1.066832,-0.127229 -3.308365,-0.122288 -4.731429,-0.108653 -1.303012,0.01248 -2.820251,0.250119 -3.815172,0.417065 -0.815981,0.136907 -1.482609,0.447862 -1.482609,0.447862 A 1.2002546,1.2002546 0 0 1 51.8451,54.11244 1.2002546,1.2002546 0 0 1 52.412305,52.511771 c 0,0 0.924852,-0.446399 2.116548,-0.646342 1.012748,-0.169938 2.622979,-0.434574 4.189031,-0.449574 1.331765,-0.01277 3.321253,-0.04116 4.742978,0.09453 0.124843,-0.05479 0.280703,-0.125349 0.456416,-0.216016 0.379795,-0.195972 0.795095,-0.524199 0.809747,-0.543252 0.3837,-0.497788 0.609155,-1.020106 0.538546,-1.729853 -0.07097,-0.713644 -0.530462,-1.714087 -1.109175,-2.507516 -0.50698,-0.695094 -1.539713,-1.536014 -2.326575,-2.124246 -0.192842,-0.14416 -0.707148,-0.379079 -1.138263,-0.520581 -0.348397,-0.11435 -0.583279,-0.170689 -0.679707,-0.192918 -0.449367,-0.06729 -1.220549,-0.21355 -2.045111,-0.498338 z"
     style="fill:#ff7f2a;stroke:none" />
</svg>
